<?xml version="1.0" encoding="UTF-8" standalone="no"?><!DOCTYPE svg PUBLIC "-//W3C//DTD SVG 1.1//EN" "http://www.w3.org/Graphics/SVG/1.1/DTD/svg11.dtd"><svg width="100%" height="100%" viewBox="0 0 241 241" version="1.1" xmlns="http://www.w3.org/2000/svg" xmlns:xlink="http://www.w3.org/1999/xlink" xml:space="preserve" xmlns:serif="http://www.serif.com/" style="fill-rule:evenodd;clip-rule:evenodd;stroke-linecap:round;stroke-linejoin:round;stroke-miterlimit:1.5;"><rect id="Icon-Zehner" x="0" y="-0" width="240.945" height="240.945" style="fill:none;"/><rect x="6.611" y="64.042" width="227.769" height="112.861" style="fill:none;stroke:#fff;stroke-width:12px;"/><path d="M66.04,143.48l-0,-35.547c-6.615,5.079 -11.068,7.618 -13.359,7.618c-1.094,-0 -2.064,-0.437 -2.911,-1.309c-0.846,-0.872 -1.269,-1.882 -1.269,-3.027c-0,-1.328 0.417,-2.305 1.25,-2.93c0.833,-0.625 2.305,-1.432 4.414,-2.422c3.151,-1.484 5.671,-3.047 7.559,-4.687c1.888,-1.641 3.561,-3.477 5.019,-5.508c1.458,-2.031 2.409,-3.281 2.852,-3.75c0.442,-0.469 1.276,-0.703 2.5,-0.703c1.38,-0 2.487,0.533 3.32,1.601c0.833,1.068 1.25,2.539 1.25,4.414l-0,44.727c-0,5.234 -1.784,7.851 -5.352,7.851c-1.588,0 -2.864,-0.533 -3.828,-1.601c-0.963,-1.068 -1.445,-2.643 -1.445,-4.727Z" style="fill:#fff;fill-rule:nonzero;stroke:#fff;stroke-width:0.24px;stroke-linecap:butt;stroke-miterlimit:2;"/><path d="M129.471,120.746c-0,4.271 -0.261,7.943 -0.781,11.016c-0.521,3.072 -1.485,5.859 -2.891,8.359c-1.771,3.073 -4.062,5.443 -6.875,7.109c-2.812,1.667 -5.937,2.5 -9.375,2.5c-3.958,0 -7.507,-1.12 -10.645,-3.359c-3.138,-2.24 -5.501,-5.339 -7.089,-9.297c-0.808,-2.161 -1.4,-4.551 -1.778,-7.168c-0.377,-2.617 -0.566,-5.449 -0.566,-8.496c-0,-3.932 0.208,-7.474 0.625,-10.625c0.417,-3.151 1.068,-5.859 1.953,-8.125c1.536,-3.75 3.77,-6.608 6.699,-8.574c2.93,-1.966 6.426,-2.949 10.489,-2.949c2.682,-0 5.117,0.436 7.304,1.308c2.188,0.872 4.108,2.149 5.762,3.828c1.654,1.68 3.053,3.757 4.199,6.231c1.979,4.297 2.969,10.377 2.969,18.242Zm-10.703,-0.781c-0,-4.766 -0.287,-8.666 -0.86,-11.7c-0.573,-3.033 -1.536,-5.325 -2.89,-6.875c-1.354,-1.549 -3.229,-2.324 -5.625,-2.324c-3.438,0 -5.827,1.732 -7.168,5.196c-1.341,3.463 -2.012,8.802 -2.012,16.015c0,4.896 0.287,8.906 0.859,12.031c0.573,3.125 1.537,5.489 2.891,7.09c1.354,1.602 3.19,2.403 5.508,2.403c2.396,-0 4.271,-0.834 5.625,-2.5c1.354,-1.667 2.305,-4.05 2.851,-7.149c0.547,-3.099 0.821,-7.161 0.821,-12.187Z" style="fill:#fff;fill-rule:nonzero;stroke:#fff;stroke-width:0.24px;stroke-linecap:butt;stroke-miterlimit:2;"/><path d="M164.124,127.777c0.911,9.349 3.906,14.024 8.984,14.024c1.901,-0 3.639,-0.456 5.215,-1.368c1.575,-0.911 3.092,-3.046 4.551,-6.406c0.937,-2.187 1.744,-3.548 2.422,-4.082c0.677,-0.534 1.406,-0.801 2.187,-0.801c1.563,0 2.78,0.45 3.652,1.348c0.873,0.898 1.309,2.155 1.309,3.77c0,3.828 -1.875,7.363 -5.625,10.605c-3.75,3.242 -8.294,4.863 -13.633,4.863c-5,0 -9.362,-1.816 -13.086,-5.449c-3.724,-3.633 -5.95,-9.134 -6.679,-16.504l-4.961,0c-0.469,0 -0.703,-0.338 -0.703,-1.015c-0,-0.652 0.247,-1.472 0.742,-2.461c0.494,-0.99 0.911,-1.485 1.25,-1.485l3.359,0l0,-1.406c0,-1.146 0.052,-2.8 0.156,-4.961l-4.804,0c-0.469,0 -0.703,-0.326 -0.703,-0.977c-0,-0.677 0.247,-1.51 0.742,-2.5c0.494,-0.989 0.911,-1.484 1.25,-1.484l3.906,0c1.693,-13.568 8.099,-20.351 19.219,-20.351c4.896,-0 9.114,1.263 12.656,3.789c3.542,2.526 5.312,5.664 5.312,9.414c0,1.276 -0.416,2.356 -1.25,3.242c-0.833,0.885 -1.849,1.328 -3.046,1.328c-1.329,-0 -2.299,-0.339 -2.911,-1.016c-0.612,-0.677 -1.217,-1.718 -1.816,-3.125c-0.755,-1.849 -1.654,-3.261 -2.695,-4.238c-1.042,-0.977 -2.813,-1.465 -5.313,-1.465c-2.864,0 -5.071,1.003 -6.621,3.008c-1.549,2.005 -2.545,5.143 -2.988,9.414l12.578,0c0.521,0 0.781,0.339 0.781,1.016c0,0.729 -0.241,1.569 -0.722,2.519c-0.482,0.951 -0.905,1.426 -1.27,1.426l-11.68,0l-0.078,3.828c0,1.172 0.026,2.018 0.078,2.539l12.891,0c0.521,0 0.781,0.326 0.781,0.977c0,0.755 -0.241,1.608 -0.722,2.558c-0.482,0.951 -0.905,1.426 -1.27,1.426l-11.445,0Z" style="fill:#fff;fill-rule:nonzero;stroke:#fff;stroke-width:0.24px;stroke-linecap:butt;stroke-miterlimit:2;"/><path d="M6.611,87.695l0,-23.653l23.653,0c0,13.055 -10.598,23.653 -23.653,23.653Z" style="fill:#fff;stroke:#fff;stroke-width:12px;"/><path d="M234.381,87.695l-0,-23.653l-23.653,0c-0,13.055 10.598,23.653 23.653,23.653Z" style="fill:#fff;stroke:#fff;stroke-width:12px;"/><path d="M6.611,153.25l0,23.653l23.653,-0c0,-13.055 -10.598,-23.653 -23.653,-23.653Z" style="fill:#fff;stroke:#fff;stroke-width:12px;"/><path d="M234.381,153.25l-0,23.653l-23.653,-0c-0,-13.055 10.598,-23.653 23.653,-23.653Z" style="fill:#fff;stroke:#fff;stroke-width:12px;"/></svg>